<svg xmlns="http://www.w3.org/2000/svg" viewBox="0 0 253.84 241.14"><defs><style>.cls-1,.cls-2{fill:none;stroke:#f2ebc9;stroke-miterlimit:10;}.cls-1{stroke-width:10px;}.cls-2{stroke-width:15px;}.cls-3{fill:#f2ebc9;}</style></defs><g id="Layer_2" data-name="Layer 2"><g id="Layer_1-2" data-name="Layer 1"><polyline class="cls-1" points="234.37 8.69 221.67 21.39 211.13 31.93 211.13 31.93 200.59 42.47 200.59 42.48 190.04 53.01 190.04 53.02 179.52 63.53"/><polyline class="cls-1" points="216.13 0.17 215.18 27.88 242.89 26.94"/><polyline class="cls-1" points="198.28 18.02 197.33 45.73 225.04 44.78"/><path class="cls-2" d="M219.31,113.49V73.92h-9.77A48.58,48.58,0,0,1,161,25.35H92.87A48.57,48.57,0,0,1,44.3,73.92H34.53v39.57"/><polyline class="cls-2" points="126.92 131.64 7.5 131.64 7.5 105.64"/><polyline class="cls-2" points="126.92 131.64 246.34 131.64 246.34 105.64"/><polygon class="cls-2" points="126.92 85.64 106.17 85.64 111.17 131.64 126.92 131.64 142.67 131.64 147.67 85.64 126.92 85.64"/><path class="cls-2" d="M66.86,131.64v43a25,25,0,0,0,25,25h0v34h67v-34h0a25,25,0,0,0,25-25v-43Z"/><circle class="cls-3" cx="101.13" cy="163.98" r="13"/><circle class="cls-3" cx="149.59" cy="163.98" r="13"/><path class="cls-3" d="M123.05,178.35l-6.23,17a2.46,2.46,0,0,0,2.31,3.31h12.46a2.46,2.46,0,0,0,2.31-3.31l-6.23-17A2.46,2.46,0,0,0,123.05,178.35Z"/></g></g></svg>